<?xml version="1.0" standalone="no"?>
<!DOCTYPE svg PUBLIC "-//W3C//DTD SVG 20010904//EN"
 "http://www.w3.org/TR/2001/REC-SVG-20010904/DTD/svg10.dtd">
<svg version="1.0" xmlns="http://www.w3.org/2000/svg"
 width="600pt" height="210.000000pt" viewBox="0 0 662.000000 210.000000"
 preserveAspectRatio="xMidYMid meet">

<g transform="translate(0.000000,210.000000) scale(0.100000,-0.100000)"
fill="#fff" stroke="none">
<path d="M3703 1806 c-117 -37 -251 -164 -383 -363 -139 -209 -291 -569 -361
-852 -6 -23 -13 -41 -15 -38 -3 3 -38 -18 -78 -47 -180 -129 -396 -202 -427
-145 -22 41 -6 95 192 666 29 84 50 155 46 159 -3 4 -27 3 -53 -1 -87 -13
-100 -34 -205 -345 -104 -312 -99 -304 -244 -403 -134 -92 -240 -128 -273 -95
-18 18 -14 98 9 174 59 194 140 378 194 438 65 73 41 156 -53 184 -145 44
-347 -19 -509 -157 -93 -80 -148 -152 -203 -266 -50 -104 -70 -184 -70 -284 0
-141 31 -178 142 -168 78 7 160 53 262 148 46 44 86 79 88 79 2 0 -2 -35 -9
-77 -17 -94 -12 -149 16 -177 19 -19 25 -19 78 -8 100 21 250 103 423 231 l33
25 -7 -30 c-46 -180 -16 -238 112 -214 145 26 292 101 489 249 l42 32 -6 -84
c-10 -147 18 -188 129 -188 156 0 394 98 605 249 100 71 94 93 -9 31 -187
-113 -342 -172 -451 -173 -63 -1 -71 1 -93 27 -29 34 -32 94 -9 202 14 68 16
72 94 145 348 328 671 814 671 1010 0 39 -4 52 -22 64 -27 19 -87 20 -145 2z
m36 -100 c12 -25 11 -41 -3 -115 -30 -152 -141 -352 -313 -566 -107 -133 -249
-282 -259 -272 -17 16 113 367 216 584 101 212 207 370 265 394 40 16 79 6 94
-25z m-1761 -646 c17 -11 32 -22 32 -25 0 -3 -16 -20 -36 -37 -41 -37 -73 -96
-116 -216 -63 -180 -138 -295 -232 -357 -86 -58 -163 -60 -191 -5 -51 99 43
379 176 524 98 107 151 133 269 135 48 1 73 -4 98 -19z"/>
<path d="M5981 1780 c-86 -29 -105 -48 -112 -111 -3 -30 -22 -101 -41 -159
-35 -103 -297 -829 -384 -1064 -24 -65 -44 -127 -44 -137 0 -27 24 -34 71 -20
65 19 99 64 147 192 45 121 90 210 108 216 6 2 20 -40 33 -103 39 -189 66
-259 119 -314 73 -75 161 -89 285 -46 107 38 336 183 337 213 0 23 -17 22 -51
-3 -108 -81 -213 -124 -302 -125 -125 -2 -176 80 -227 361 -26 149 -27 150
-56 150 -13 0 -24 4 -24 9 0 13 102 105 176 157 76 54 149 84 204 84 61 0 66
-39 16 -113 -14 -20 -22 -37 -18 -37 17 0 157 118 173 145 58 99 11 137 -131
104 -118 -27 -345 -186 -475 -333 -32 -36 -62 -66 -66 -66 -8 0 19 77 120 350
198 537 240 654 235 661 -8 13 -32 10 -93 -11z"/>
<path d="M5100 1693 c-144 -24 -277 -109 -342 -218 -10 -17 -46 -54 -80 -81
-163 -131 -306 -377 -359 -616 -29 -131 -24 -280 12 -358 50 -108 127 -165
235 -174 65 -5 208 26 274 59 244 123 491 437 574 730 44 155 57 304 36 415
-34 177 -172 273 -350 243z m58 -79 c139 -58 181 -232 128 -534 -58 -327 -236
-610 -441 -701 -155 -69 -294 -13 -351 141 -25 70 -30 238 -9 362 29 173 77
291 167 410 47 62 54 67 65 52 21 -29 67 -7 71 32 2 18 13 41 25 52 61 57 218
104 277 84 26 -9 32 -9 37 4 10 26 -18 35 -88 30 -57 -4 -87 -13 -208 -64 -10
-4 -8 5 7 25 69 97 222 148 320 107z"/>
<path d="M565 1675 c-74 -26 -63 1 -262 -660 -43 -145 -149 -485 -184 -591
-43 -132 -47 -164 -24 -164 39 0 97 46 107 85 85 321 126 472 154 568 57 194
159 492 170 492 5 0 19 -81 31 -180 46 -391 63 -524 77 -610 8 -49 22 -135 31
-190 17 -107 49 -188 77 -193 9 -2 34 12 55 31 67 61 97 127 148 322 82 316
180 627 289 921 54 147 64 184 49 184 -57 0 -126 -50 -138 -98 -3 -15 -33
-119 -67 -232 -33 -113 -71 -243 -85 -290 -14 -47 -33 -112 -43 -145 -10 -33
-40 -132 -65 -220 -26 -88 -51 -164 -55 -168 -14 -16 -74 313 -100 548 -6 55
-20 174 -31 265 -11 91 -24 199 -29 240 -6 52 -14 78 -26 87 -22 16 -29 16
-79 -2z"/>
<path d="M2652 1545 c-49 -21 -74 -94 -56 -162 16 -60 136 -47 170 19 17 33
19 129 2 146 -16 16 -75 15 -116 -3z"/>
<path d="M3864 441 c-36 -22 -54 -65 -54 -126 0 -50 16 -67 63 -68 39 -1 79
22 102 57 22 33 31 121 15 141 -18 21 -88 19 -126 -4z"/>
</g>
</svg>
